<svg width="60" height="60" viewBox="0 0 60 60" fill="none" xmlns="http://www.w3.org/2000/svg">
<path d="M24.8178 10.2H33.4002C34.8264 10.2 36.1422 10.9668 36.8454 12.2076L51.4974 38.064C52.1478 39.2118 52.1838 40.6074 51.594 41.787L47.5878 49.8L24.8178 10.2Z" fill="#40A6DD"/>
<path d="M20.8578 17.13L10.9578 33.96H31.7478L20.8578 17.13Z" fill="#40A6DD"/>
<path d="M7.98779 40.89L12.9378 49.8H40.6578L35.7078 40.89H7.98779Z" fill="#40A6DD"/>
<path d="M52.0194 37.7682L37.3674 11.9112C36.5592 10.4862 35.0388 9.60001 33.4002 9.60001H24.8178C24.6036 9.60001 24.4056 9.71401 24.2988 9.89941C24.1914 10.0854 24.1908 10.3134 24.2976 10.4988L47.0676 50.0988C47.175 50.286 47.3736 50.4 47.5878 50.4H47.6052C47.826 50.3934 48.0252 50.2656 48.1242 50.0682L52.1304 42.0558C52.812 40.695 52.77 39.0918 52.0194 37.7682ZM51.0576 41.5188L51.0498 41.5344L37.35 17.358C37.2678 17.2128 37.0836 17.1618 36.9414 17.2452C36.7974 17.3268 36.7464 17.5092 36.8286 17.6538L50.727 42.1812L47.5518 48.5328L25.8552 10.8H32.9454L35.7726 15.7896C35.8278 15.8874 35.9292 15.942 36.0336 15.942C36.084 15.942 36.135 15.9294 36.1812 15.903C36.3252 15.8214 36.3762 15.639 36.294 15.4944L33.6432 10.8162C34.7562 10.8978 35.7684 11.5236 36.3234 12.5034L50.9754 38.3604C51.5286 39.336 51.5592 40.5162 51.0576 41.5188ZM10.9578 34.56H31.7478C31.9674 34.56 32.1696 34.44 32.2752 34.2468C32.3802 34.0542 32.3712 33.819 32.2518 33.6342L21.3618 16.8042C21.249 16.6296 21.0432 16.5426 20.8452 16.53C20.637 16.5348 20.4462 16.6464 20.3406 16.8258L10.4406 33.6558C10.3314 33.8412 10.3302 34.071 10.437 34.2576C10.5432 34.4442 10.7424 34.56 10.9578 34.56ZM20.8824 18.2718L30.645 33.36H12.0066L20.8824 18.2718ZM36.2322 40.599C36.1266 40.4088 35.9256 40.29 35.7078 40.29H7.9878C7.7754 40.29 7.578 40.4028 7.4706 40.5858C7.3626 40.7688 7.3602 40.9956 7.4634 41.181L12.4134 50.091C12.519 50.2818 12.72 50.4 12.9378 50.4H40.6572C40.8696 50.4 41.067 50.2872 41.1744 50.1042C41.2824 49.9212 41.2848 49.6944 41.1816 49.509L36.2322 40.599ZM13.2912 49.2L12.6246 48H21.3C21.4656 48 21.6 47.8656 21.6 47.7C21.6 47.5344 21.4656 47.4 21.3 47.4H12.291L9.0072 41.49H35.3538L38.6382 47.4H26.7C26.5344 47.4 26.4 47.5344 26.4 47.7C26.4 47.8656 26.5344 48 26.7 48H38.9712L39.6378 49.2H13.2912ZM24.3 47.4H23.1C22.9344 47.4 22.8 47.5344 22.8 47.7C22.8 47.8656 22.9344 48 23.1 48H24.3C24.4656 48 24.6 47.8656 24.6 47.7C24.6 47.5344 24.4656 47.4 24.3 47.4Z" fill="#1F212B"/>
</svg>
